<?xml version="1.0" encoding="UTF-8" standalone="no"?>

<svg xmlns="http://www.w3.org/2000/svg" width="500" height="500" viewBox="0 0 500 500">
<rect x="50" y="20" width="100" height="50" fill="blue" />
<circle cx="100" cy="50" r="40" fill="red" />
<ellipse cx="120" cy="70" rx="60" ry="30" fill="orange" />
<line x1="10" y1="10" x2="200" y2="200" stroke="black" stroke-width="2" />
<path d="M 10 80 Q 95 10 180 80 T 270 80" stroke="green" fill="none" stroke-width="2" />
  <!-- Penguin Body (Main Body) -->
  <ellipse cx="200" cy="300" rx="90" ry="130" fill="black" />
  <!-- Penguin Belly (White part) -->
  <ellipse cx="200" cy="350" rx="60" ry="90" fill="white" />
  <!-- Penguin Eyes -->
  <circle cx="170" cy="250" r="15" fill="white" />
  <circle cx="230" cy="250" r="15" fill="white" />
  <!-- Penguin Pupils -->
  <circle cx="170" cy="250" r="7" fill="black" />
  <circle cx="230" cy="250" r="7" fill="black" />
  <!-- Penguin Beak -->
  <polygon points="200,275 185,290 215,290" fill="orange" />
  <!-- Penguin Wings -->
  <ellipse cx="120" cy="300" rx="40" ry="80" fill="black" />
  <ellipse cx="280" cy="300" rx="40" ry="80" fill="black" />
  <!-- Penguin Feet -->
  <ellipse cx="170" cy="420" rx="30" ry="20" fill="orange" />
  <ellipse cx="230" cy="420" rx="30" ry="20" fill="orange" /> 
  <!-- Penguin Feet Toes -->
  <circle cx="155" cy="420" r="5" fill="orange" />
  <circle cx="185" cy="420" r="5" fill="orange" />
  <circle cx="215" cy="420" r="5" fill="orange" />
  <circle cx="245" cy="420" r="5" fill="orange" />
  <circle cx="275" cy="420" r="5" fill="orange" />






















</svg>